<?xml version="1.0" encoding="utf-8"?>
<!-- Generator: Adobe Illustrator 25.2.3, SVG Export Plug-In . SVG Version: 6.00 Build 0)  -->
<svg version="1.1" id="Ebene_1" xmlns="http://www.w3.org/2000/svg" xmlns:xlink="http://www.w3.org/1999/xlink" x="0px" y="0px"
	 viewBox="0 0 1920 1080" style="enable-background:new 0 0 1920 1080;" xml:space="preserve">
<style type="text/css">
	.st0{fill:#999999;}
	.st1{display:none;fill:#999999;}
	.st2{fill:url(#SVGID_1_);}
	.st3{fill:url(#SVGID_2_);}
	.st4{fill:url(#SVGID_3_);}
</style>
<g>
	<path class="st0" d="M1726.13,707.31c0,32.84-7.78,63.69-23.33,92.52c-15.56,28.83-38.89,54.03-69.98,75.59
		C1601.71,897,1562.6,914,1515.5,926.41c-47.09,12.39-101.97,18.61-164.61,18.61c-34.67,0-65.78-0.97-93.33-2.86
		c-27.55-1.92-53.31-4.41-77.3-7.45v-89.34c27.53,4.2,56.64,7.45,87.3,9.73c30.66,2.3,61.98,3.44,93.98,3.44
		c43.53,0,80.75-3.33,111.64-10.02c30.88-6.69,56.09-16.33,75.64-28.94c19.55-12.59,33.77-27.88,42.66-45.81
		s13.34-38.19,13.34-60.72c0-20.61-5.34-38.55-16-53.83c-10.67-15.28-25.67-28.06-45-38.38s-42.44-18.05-69.31-23.2
		s-56.31-7.73-88.31-7.73h-99.3V508h100.64c26.2,0,50.08-2.95,71.64-8.88c21.55-5.91,39.98-14.41,55.31-25.48
		c15.33-11.06,27.11-24.72,35.33-40.95c8.22-16.22,12.34-34.66,12.34-55.28c0-40.08-14.22-69.28-42.66-87.61
		s-70.22-27.5-125.31-27.5c-29.33,0-59.55,2.48-90.64,7.45c-31.11,4.97-64.44,12.41-99.97,22.33v-87.06
		c15.09-4.58,31.2-8.69,48.31-12.31c17.09-3.62,34.2-6.67,51.31-9.16s34.11-4.39,51-5.73c16.88-1.34,33.09-2.02,48.66-2.02
		c46.2,0,86.86,4.3,121.97,12.89c35.09,8.59,64.42,20.92,87.97,36.95s41.33,35.52,53.33,58.42s18,48.69,18,77.31
		c0,42.78-12.78,78.67-38.33,107.69c-25.56,29.02-60.55,52.11-104.97,69.3c22.66,3.06,44.97,9.17,66.97,18.33
		c22,9.17,41.77,20.92,59.33,35.23c17.55,14.31,31.77,31.22,42.66,50.69C1720.67,662.08,1726.13,683.66,1726.13,707.31z"/>
</g>
<polygon class="st1" points="629.71,435.31 629.38,443.83 637.69,443.89 637.94,432.96 631.42,432.15 629.87,434.93 "/>
<polygon class="st1" points="635.28,490.49 635.71,481.97 627.53,481.8 627.15,492.73 633.56,493.62 635.12,490.86 "/>
<g>
	<g>
		<linearGradient id="SVGID_1_" gradientUnits="userSpaceOnUse" x1="646.2258" y1="936.0986" x2="646.2258" y2="364.0747">
			<stop  offset="0.0732" style="stop-color:#00A4CD"/>
			<stop  offset="1" style="stop-color:#763CBC"/>
		</linearGradient>
		<path class="st2" d="M351.39,442.54c7.32,9.16,12.49,18.77,15.5,28.84c3,10.07,4.51,20.34,4.51,30.8
			c0,22.23-3.86,41.85-11.57,58.85c-7.72,17.01-18.57,31.26-32.56,42.76c-14,11.51-30.74,20.21-50.22,26.09
			c-19.49,5.88-41,8.83-64.54,8.83c-13.87,0-26.68-1.37-38.45-4.12c-11.77-2.75-20.66-5.95-26.68-9.61
			c-4.45,4.45-8.24,9.35-11.38,14.71c-3.14,5.36-4.71,11.45-4.71,18.24c0,4.19,1.04,8.37,3.14,12.55c2.09,4.19,5.16,7.91,9.22,11.18
			c4.05,3.27,8.89,5.95,14.52,8.04c5.62,2.1,11.97,3.27,19.03,3.53l94.55,3.53c21.19,0.53,40.34,3.21,57.48,8.04
			c17.13,4.84,31.84,11.71,44.14,20.6c12.29,8.9,21.77,19.68,28.44,32.37c6.67,12.69,10,27.13,10,43.35
			c0,18.57-4.19,36.09-12.55,52.57c-8.37,16.48-20.99,30.8-37.86,42.96c-16.87,12.16-37.86,21.78-62.97,28.84
			c-25.11,7.06-54.28,10.59-87.49,10.59c-32.17,0-59.83-2.55-82.98-7.65c-23.15-5.1-42.11-12.23-56.89-21.38
			c-14.78-9.16-25.7-20.08-32.76-32.76c-7.06-12.69-10.59-26.62-10.59-41.78c0-9.16,1.18-17.66,3.53-25.5s5.88-15.37,10.59-22.56
			c4.71-7.2,10.59-14.19,17.66-20.99c7.06-6.8,15.43-13.6,25.11-20.4c-12.82-7.32-22.56-16.74-29.23-28.25
			c-6.67-11.51-10-23.8-10-36.88c0-8.89,1.18-17.2,3.53-24.91c2.35-7.71,5.43-15.1,9.22-22.17c3.79-7.06,8.17-13.86,13.14-20.4
			c4.97-6.54,10.2-12.95,15.69-19.22c-9.68-9.67-17.72-21.38-24.13-35.11c-6.41-13.73-9.61-30.93-9.61-51.59
			c0-22.23,3.98-42.04,11.97-59.44c7.98-17.39,19.03-32.04,33.15-43.94c14.12-11.9,30.93-20.92,50.42-27.07
			c19.48-6.14,40.74-9.22,63.75-9.22c11.77,0,23.08,0.59,33.94,1.77c10.85,1.18,20.73,3.21,29.62,6.08h138.1v69.84H351.39z
			 M125.79,824.28c0,15.43,7.78,26.81,23.34,34.13c15.56,7.32,37.47,10.99,65.72,10.99c18.05,0,33.28-1.7,45.71-5.1
			c12.42-3.4,22.56-7.85,30.41-13.34c7.85-5.49,13.47-11.9,16.87-19.22c3.4-7.33,5.1-14.91,5.1-22.76c0-7.06-1.64-13.01-4.9-17.85
			c-3.27-4.84-7.85-8.89-13.73-12.16c-5.89-3.27-12.82-5.76-20.79-7.45c-7.98-1.7-16.81-2.81-26.48-3.33l-84.35-1.57
			c-7.59,5.23-13.8,10.2-18.64,14.91c-4.84,4.71-8.63,9.35-11.38,13.93c-2.75,4.57-4.58,9.22-5.49,13.93
			C126.25,814.08,125.79,819.05,125.79,824.28z M141.88,504.53c0,21.19,6.21,38,18.64,50.42c12.42,12.43,29.75,18.64,51.98,18.64
			c11.77,0,22.03-1.96,30.8-5.88c8.76-3.92,16.02-9.15,21.77-15.69c5.75-6.54,10.07-14.12,12.95-22.76
			c2.88-8.63,4.32-17.65,4.32-27.07c0-22.23-6.22-39.56-18.64-51.98c-12.43-12.42-29.76-18.64-51.98-18.64
			c-11.77,0-22.04,1.96-30.8,5.89c-8.77,3.92-16.02,9.22-21.77,15.89c-5.76,6.67-10.07,14.46-12.95,23.34
			C143.31,485.57,141.88,494.86,141.88,504.53z"/>
		<linearGradient id="SVGID_2_" gradientUnits="userSpaceOnUse" x1="646.2258" y1="936.0986" x2="646.2258" y2="364.0747">
			<stop  offset="0.0732" style="stop-color:#00A4CD"/>
			<stop  offset="1" style="stop-color:#763CBC"/>
		</linearGradient>
		<path class="st3" d="M731.95,771.32V511.59c0-43.68-16.22-65.52-48.65-65.52c-16.22,0-31.72,6.54-46.49,19.62
			c-14.78,13.08-30.41,30.87-46.88,53.36v252.27H494.2V372.71h82.78l2.35,58.85c8.1-10.2,16.54-19.48,25.31-27.86
			c8.76-8.37,18.24-15.5,28.44-21.38c10.2-5.89,21.19-10.4,32.96-13.54s24.97-4.71,39.63-4.71c20.4,0,38.19,3.33,53.36,10
			c15.17,6.67,27.86,16.09,38.06,28.25c10.2,12.16,17.85,26.81,22.95,43.94c5.1,17.13,7.65,36.29,7.65,57.48v267.57H731.95z"/>
		<linearGradient id="SVGID_3_" gradientUnits="userSpaceOnUse" x1="646.2258" y1="936.0986" x2="646.2258" y2="364.0747">
			<stop  offset="0.0732" style="stop-color:#00A4CD"/>
			<stop  offset="1" style="stop-color:#763CBC"/>
		</linearGradient>
		<path class="st4" d="M1264.74,654.01c0,22.76-5.04,42.18-15.11,58.26c-10.07,16.09-23.41,29.17-40.02,39.23
			c-16.61,10.07-35.45,17.4-56.5,21.97c-21.06,4.57-42.57,6.87-64.54,6.87c-29.3,0-55.71-1.37-79.25-4.12s-45.77-6.73-66.7-11.97
			v-86.31c24.58,10.2,49.1,17.59,73.56,22.17c24.45,4.58,47.53,6.87,69.25,6.87c25.11,0,43.87-3.98,56.3-11.97
			c12.42-7.97,18.64-18.37,18.64-31.19c0-6.01-1.31-11.51-3.92-16.48c-2.62-4.97-7.52-9.74-14.71-14.32
			c-7.2-4.57-17.33-9.28-30.41-14.12c-13.08-4.84-30.21-10.26-51.4-16.28c-19.62-5.49-36.82-11.7-51.59-18.64
			c-14.78-6.93-27.01-15.11-36.68-24.52c-9.68-9.42-16.94-20.33-21.77-32.76c-4.84-12.42-7.26-27-7.26-43.75
			c0-16.21,3.66-31.52,10.99-45.9c7.32-14.38,18.24-27,32.76-37.86c14.52-10.85,32.63-19.42,54.34-25.7
			c21.71-6.28,47.08-9.42,76.11-9.42c25.11,0,47.34,1.31,66.7,3.92c19.35,2.62,36.49,5.49,51.4,8.63v78.07
			c-22.76-7.32-44.14-12.49-64.15-15.5c-20.01-3-39.82-4.51-59.44-4.51c-19.62,0-35.38,3.53-47.28,10.59
			c-11.9,7.06-17.85,16.87-17.85,29.42c0,6.02,1.18,11.38,3.53,16.09c2.35,4.71,7,9.29,13.93,13.73
			c6.93,4.45,16.61,9.09,29.03,13.93c12.42,4.84,28.84,10.14,49.24,15.89c23.01,6.54,42.37,13.54,58.07,20.99
			s28.31,15.89,37.86,25.31c9.54,9.42,16.41,20.14,20.6,32.17C1262.65,624.85,1264.74,638.58,1264.74,654.01z"/>
	</g>
</g>
<g>
	<path d="M1503.12,767.31c-3.91,1.35-7.55,2.33-10.9,2.93c-3.35,0.6-6.78,0.91-10.27,0.91c-9.32,0-16.49-2.15-21.52-6.46
		c-5.03-4.31-7.55-10.77-7.55-19.39c0-7.08,1.12-13.47,3.35-19.18c2.24-5.71,5.29-10.56,9.15-14.57c3.87-4.01,8.38-7.09,13.55-9.26
		c5.17-2.17,10.67-3.25,16.49-3.25c3.35,0,6.72,0.26,10.1,0.77c3.38,0.51,6.58,1.35,9.61,2.51l-2.17,11.04
		c-2.56-1.21-5.47-2.18-8.73-2.9c-3.26-0.72-6.41-1.08-9.43-1.08c-4.71,0-8.86,0.98-12.47,2.93c-3.61,1.96-6.65,4.55-9.12,7.79
		c-2.47,3.24-4.34,6.92-5.62,11.04c-1.28,4.12-1.92,8.35-1.92,12.68c0,5.68,1.54,9.95,4.61,12.79c3.07,2.84,7.59,4.26,13.55,4.26
		c3.07,0,6.3-0.33,9.68-0.98c3.38-0.65,6.58-1.61,9.61-2.87V767.31z"/>
	<path d="M1536.17,732.24c0.19-0.88,0.38-2.05,0.59-3.49c0.21-1.44,0.46-3.39,0.73-5.83s0.63-5.52,1.05-9.22s0.91-8.26,1.47-13.66
		h11.46l-1.75,16.21c1.63-2.38,3.4-4.62,5.31-6.74c1.91-2.12,4.01-3.97,6.29-5.55c2.28-1.58,4.77-2.84,7.48-3.77
		c2.7-0.93,5.66-1.4,8.87-1.4c7.69,0,13,2.4,15.93,7.2c2.93,4.8,3.4,11.74,1.4,20.82h-12.37c0.7-3.21,1.05-5.94,1.05-8.17
		c0-2.24-0.31-4.04-0.94-5.42c-0.63-1.37-1.56-2.38-2.79-3c-1.24-0.63-2.71-0.94-4.44-0.94c-3.35,0-6.62,1.01-9.78,3.04
		c-3.17,2.03-6.07,4.68-8.7,7.96c-2.63,3.28-4.89,6.98-6.78,11.08s-3.25,8.22-4.09,12.37l-5.31,26.48h-12.3L1536.17,732.24z"/>
	<path d="M1667.18,765.78c-3.21,1.77-6.6,3.16-10.17,4.16c-3.56,1-7.37,1.5-11.42,1.5c-3.31,0-6.08-0.47-8.31-1.4
		c-2.24-0.93-3.95-2.41-5.14-4.44c-1.19-2.03-1.85-4.62-1.99-7.79c-0.14-3.17,0.23-7.01,1.12-11.53l4.75-23.48
		c0.56-2.66,0.83-4.88,0.8-6.67c-0.02-1.79-0.27-3.22-0.73-4.3c-0.47-1.07-1.15-1.83-2.06-2.27s-1.97-0.66-3.18-0.66
		c-3.17,0-6.29,0.62-9.36,1.85c-3.07,1.23-6.2,2.74-9.36,4.51V704.5c3.21-1.77,6.6-3.17,10.17-4.19s7.37-1.54,11.42-1.54
		c3.31,0,6.08,0.47,8.31,1.4c2.24,0.93,3.95,2.41,5.14,4.44s1.85,4.62,1.99,7.79c0.14,3.17-0.23,7.01-1.12,11.53l-4.75,23.48
		c-0.51,2.7-0.77,4.94-0.77,6.71c0,1.77,0.25,3.19,0.73,4.26c0.49,1.07,1.18,1.83,2.06,2.27c0.88,0.44,1.93,0.66,3.14,0.66
		c3.17,0,6.29-0.62,9.36-1.85c3.07-1.23,6.19-2.71,9.36-4.44V765.78z M1638.32,680.6c0-1.44,0.26-2.77,0.77-3.98
		c0.51-1.21,1.22-2.26,2.13-3.14c0.91-0.88,1.97-1.58,3.18-2.1c1.21-0.51,2.52-0.77,3.91-0.77c1.35,0,2.58,0.24,3.7,0.73
		c1.12,0.49,2.08,1.14,2.9,1.96c0.81,0.82,1.44,1.78,1.89,2.9c0.44,1.12,0.66,2.31,0.66,3.56c0,1.44-0.26,2.77-0.77,3.98
		c-0.51,1.21-1.22,2.26-2.13,3.14c-0.91,0.89-1.97,1.58-3.18,2.1c-1.21,0.51-2.52,0.77-3.91,0.77c-1.35,0-2.6-0.25-3.74-0.73
		c-1.14-0.49-2.11-1.14-2.9-1.96c-0.79-0.81-1.41-1.78-1.85-2.9C1638.54,683.05,1638.32,681.86,1638.32,680.6z"/>
	<path d="M1710.84,771.02c-3.4,0-6.25-0.14-8.56-0.42c-2.31-0.28-4.46-0.7-6.46-1.26l-5.87,29.49h-12.16l13.28-66.59
		c0.19-0.88,0.38-2.05,0.59-3.49c0.21-1.44,0.47-3.39,0.77-5.83s0.65-5.52,1.05-9.22c0.39-3.7,0.87-8.26,1.43-13.66h11.46
		l-1.68,16.21c3.21-5.63,7.1-9.96,11.67-12.96c4.56-3,9.55-4.51,14.95-4.51c3.35,0,6.26,0.57,8.73,1.71
		c2.47,1.14,4.52,2.74,6.15,4.79c1.63,2.05,2.84,4.53,3.63,7.44c0.79,2.91,1.19,6.14,1.19,9.68c0,6.71-0.87,13.01-2.62,18.9
		c-1.75,5.89-4.32,11.04-7.72,15.44c-3.4,4.4-7.61,7.88-12.61,10.45C1723.06,769.74,1717.32,771.02,1710.84,771.02z M1738.72,723.5
		c0-4.47-0.76-7.94-2.27-10.41s-3.99-3.7-7.44-3.7c-2,0-4.01,0.47-6.01,1.4s-3.96,2.21-5.87,3.84c-1.91,1.63-3.73,3.55-5.45,5.76
		c-1.72,2.21-3.28,4.59-4.68,7.13c-1.4,2.54-2.62,5.18-3.67,7.93c-1.05,2.75-1.85,5.5-2.41,8.25l-2.86,14.46
		c2.19,0.93,4.45,1.67,6.78,2.2c2.33,0.54,4.47,0.8,6.43,0.8c3.82,0,7.15-0.65,9.99-1.96c2.84-1.3,5.28-3,7.3-5.1
		c2.03-2.1,3.69-4.49,5-7.2c1.3-2.7,2.34-5.45,3.11-8.25s1.3-5.51,1.61-8.14C1738.57,727.9,1738.72,725.56,1738.72,723.5z"/>
	<path d="M1819.56,769.2c-2.93,0.7-5.83,1.2-8.7,1.5c-2.87,0.3-5.42,0.45-7.65,0.45c-4.75,0-8.82-0.52-12.19-1.57
		c-3.38-1.05-6.04-2.71-8-5c-1.96-2.28-3.18-5.23-3.67-8.84c-0.49-3.61-0.2-8,0.87-13.17l6.43-32.35h-19.63l2.03-10.2h19.56
		l3.91-19.28l12.86-3.14l-4.61,22.43h31.51l-2.03,10.2h-31.44l-6.57,32.77c-0.65,3.21-0.91,5.95-0.77,8.21
		c0.14,2.26,0.7,4.11,1.68,5.55c0.98,1.44,2.4,2.49,4.26,3.14c1.86,0.65,4.24,0.98,7.13,0.98c1.72,0,3.89-0.17,6.5-0.52
		c2.61-0.35,5.45-0.9,8.52-1.64V769.2z"/>
</g>
<g>
</g>
<g>
</g>
<g>
</g>
<g>
</g>
<g>
</g>
<g>
</g>
<g>
</g>
<g>
</g>
<g>
</g>
<g>
</g>
<g>
</g>
<g>
</g>
<g>
</g>
<g>
</g>
<g>
</g>
</svg>
